<svg xmlns="http://www.w3.org/2000/svg" xmlns:xlink="http://www.w3.org/1999/xlink" width="500" zoomAndPan="magnify" viewBox="0 0 375 374.999991" height="500" preserveAspectRatio="xMidYMid meet" version="1.0"><defs><g/><clipPath id="id1"><path d="M 129 116.011719 L 244 116.011719 L 244 199 L 129 199 Z M 129 116.011719 " clip-rule="nonzero"/></clipPath><clipPath id="id2"><path d="M 142 259 L 201 259 L 201 326.949219 L 142 326.949219 Z M 142 259 " clip-rule="nonzero"/></clipPath><clipPath id="id3"><path d="M 172 205 L 221 205 L 221 326.949219 L 172 326.949219 Z M 172 205 " clip-rule="nonzero"/></clipPath><clipPath id="id4"><path d="M 186 275 L 232 275 L 232 326.949219 L 186 326.949219 Z M 186 275 " clip-rule="nonzero"/></clipPath><clipPath id="id5"><path d="M 208 301 L 230 301 L 230 326.949219 L 208 326.949219 Z M 208 301 " clip-rule="nonzero"/></clipPath><clipPath id="id6"><path d="M 118.070312 196 L 256.820312 196 L 256.820312 209 L 118.070312 209 Z M 118.070312 196 " clip-rule="nonzero"/></clipPath></defs><g clip-path="url(#id1)"><path fill="#ed6b44" d="M 135.28125 198.585938 L 237.242188 198.585938 C 237.890625 197.296875 238.503906 195.984375 239.054688 194.640625 L 239.054688 194.632812 C 239.375 193.851562 239.675781 193.070312 239.957031 192.273438 C 242.082031 186.335938 243.253906 179.941406 243.269531 173.273438 C 243.277344 173.199219 243.277344 173.132812 243.277344 173.058594 C 243.277344 172.191406 243.261719 171.320312 243.21875 170.464844 C 243.019531 165.921875 242.289062 161.503906 241.078125 157.304688 C 240.714844 156.03125 240.304688 154.777344 239.851562 153.542969 L 239.851562 153.53125 C 233.992188 137.4375 221.101562 124.722656 204.890625 119.125 C 202.898438 118.429688 200.859375 117.847656 198.773438 117.382812 C 194.75 116.476562 190.566406 116.003906 186.277344 116.003906 C 172.878906 116.003906 160.570312 120.628906 150.835938 128.371094 C 149.890625 129.117188 148.96875 129.898438 148.0625 130.710938 C 136.808594 140.886719 129.628906 155.492188 129.273438 171.769531 C 129.265625 172.191406 129.257812 172.617188 129.257812 173.039062 C 129.257812 173.464844 129.265625 173.894531 129.273438 174.320312 C 129.464844 183.046875 131.613281 191.269531 135.28125 198.585938 Z M 135.28125 198.585938 " fill-opacity="1" fill-rule="nonzero"/></g><path fill="#333332" d="M 227.242188 167.121094 C 227.316406 167.933594 227.375 168.746094 227.410156 169.5625 C 227.46875 170.722656 227.5 171.894531 227.5 173.066406 C 227.5 174.550781 227.449219 176.03125 227.359375 177.492188 C 227.308594 178.332031 227.242188 179.167969 227.152344 180.007812 C 226.859375 182.875 226.386719 185.6875 225.757812 188.445312 C 225.558594 189.292969 225.351562 190.140625 225.125 190.96875 C 224.421875 193.578125 223.550781 196.109375 222.546875 198.585938 L 225.125 198.585938 C 226.121094 196.019531 226.976562 193.378906 227.664062 190.671875 C 227.875 189.875 228.0625 189.078125 228.238281 188.261719 C 228.886719 185.332031 229.351562 182.332031 229.609375 179.277344 C 229.683594 178.4375 229.742188 177.589844 229.78125 176.734375 C 229.839844 175.523438 229.882812 174.292969 229.882812 173.066406 C 229.882812 171.636719 229.839844 170.226562 229.75 168.8125 C 229.699219 167.964844 229.632812 167.128906 229.550781 166.289062 C 227.757812 147.453125 218.542969 130.746094 204.875 119.144531 C 202.882812 118.445312 200.839844 117.863281 198.757812 117.398438 C 214.636719 128.71875 225.476562 146.640625 227.242188 167.121094 Z M 227.242188 167.121094 " fill-opacity="1" fill-rule="nonzero"/><path fill="#333332" d="M 243.277344 173.066406 C 243.277344 173.140625 243.277344 173.207031 243.269531 173.28125 C 239.46875 175.632812 234.878906 177.640625 229.625 179.277344 C 228.820312 179.527344 227.996094 179.765625 227.160156 180.007812 C 216.644531 182.949219 203.730469 184.507812 189.3125 184.507812 C 184.988281 184.507812 180.515625 184.367188 175.941406 184.085938 C 154.835938 182.765625 137.804688 177.484375 129.28125 174.34375 C 129.273438 173.921875 129.265625 173.488281 129.265625 173.066406 C 129.265625 172.640625 129.273438 172.21875 129.28125 171.792969 C 137.308594 174.824219 154.539062 180.347656 176.09375 181.703125 C 196.101562 182.957031 213.886719 181.410156 227.367188 177.5 C 228.195312 177.257812 229.011719 177.011719 229.808594 176.753906 C 235.0625 175.042969 239.574219 172.949219 243.21875 170.492188 C 243.253906 171.339844 243.277344 172.203125 243.277344 173.066406 Z M 243.277344 173.066406 " fill-opacity="1" fill-rule="nonzero"/><path fill="#333332" d="M 241.078125 157.320312 C 240.097656 159.613281 238.769531 161.746094 237.101562 163.621094 C 234.976562 166.007812 232.496094 167.75 229.773438 168.820312 C 229.011719 169.121094 228.222656 169.371094 227.425781 169.570312 C 225.996094 169.910156 224.527344 170.09375 223.019531 170.09375 C 220.96875 170.09375 218.859375 169.769531 216.726562 169.113281 C 207.664062 166.320312 200.851562 159.578125 194.269531 153.050781 C 190.449219 149.265625 186.5 145.359375 182.226562 142.378906 C 171.085938 134.613281 158.910156 130.554688 148.082031 130.738281 C 148.976562 129.921875 149.90625 129.140625 150.851562 128.394531 C 161.453125 128.875 173.003906 133.027344 183.59375 140.417969 C 188.035156 143.515625 192.058594 147.503906 195.953125 151.355469 C 202.335938 157.675781 208.933594 164.210938 217.433594 166.828125 C 220.84375 167.882812 224.195312 167.964844 227.269531 167.128906 C 228.0625 166.910156 228.835938 166.636719 229.589844 166.296875 C 231.714844 165.34375 233.660156 163.914062 235.335938 162.027344 C 237.5 159.59375 239.027344 156.679688 239.875 153.558594 C 240.296875 154.796875 240.703125 156.050781 241.078125 157.320312 Z M 241.078125 157.320312 " fill-opacity="1" fill-rule="nonzero"/><path fill="#333332" d="M 210.4375 198.585938 C 214.195312 195.519531 218.246094 192.945312 222.851562 191.527344 C 223.617188 191.292969 224.371094 191.101562 225.125 190.96875 C 225.988281 190.804688 226.835938 190.710938 227.675781 190.679688 L 227.675781 190.671875 C 231.890625 190.496094 235.824219 191.859375 239.042969 194.640625 C 239.367188 193.859375 239.667969 193.078125 239.949219 192.28125 C 236.5625 189.589844 232.539062 188.222656 228.246094 188.269531 C 227.425781 188.28125 226.59375 188.328125 225.757812 188.445312 C 224.570312 188.601562 223.359375 188.867188 222.148438 189.242188 C 216.238281 191.0625 211.28125 194.566406 206.734375 198.59375 L 210.4375 198.59375 Z M 210.4375 198.585938 " fill-opacity="1" fill-rule="nonzero"/><path fill="#cacaca" d="M 144.984375 325.945312 C 144.953125 325.945312 144.910156 325.945312 144.878906 325.9375 C 144.253906 325.878906 143.796875 325.324219 143.855469 324.699219 C 144.03125 322.898438 144.121094 321.09375 144.222656 319.183594 C 144.328125 317.035156 144.445312 314.808594 144.695312 312.589844 C 145.117188 300.332031 144.394531 287.984375 142.429688 273.75 C 138.652344 248.703125 133.488281 226.007812 126.644531 204.367188 C 126.453125 203.765625 126.785156 203.128906 127.382812 202.9375 C 127.980469 202.746094 128.617188 203.078125 128.808594 203.675781 C 135.6875 225.433594 140.875 248.246094 144.679688 273.417969 C 146.660156 287.820312 147.390625 300.300781 146.960938 312.707031 C 146.960938 312.734375 146.960938 312.765625 146.953125 312.789062 C 146.710938 314.957031 146.59375 317.160156 146.488281 319.292969 C 146.394531 321.144531 146.296875 323.054688 146.113281 324.90625 C 146.054688 325.503906 145.566406 325.945312 144.984375 325.945312 Z M 145.824219 312.675781 Z M 145.824219 312.675781 " fill-opacity="1" fill-rule="nonzero"/><path fill="#cacaca" d="M 228.984375 325.945312 C 228.394531 325.945312 227.898438 325.488281 227.855469 324.890625 C 225.359375 288.257812 231.027344 248.613281 245.171875 203.683594 C 245.359375 203.085938 246 202.753906 246.597656 202.945312 C 247.195312 203.136719 247.527344 203.777344 247.335938 204.375 C 233.277344 249.027344 227.648438 288.398438 230.121094 324.742188 C 230.164062 325.363281 229.691406 325.910156 229.070312 325.953125 C 229.035156 325.945312 229.011719 325.945312 228.984375 325.945312 Z M 228.984375 325.945312 " fill-opacity="1" fill-rule="nonzero"/><path fill="#cacaca" d="M 152.511719 261.957031 C 152.164062 261.957031 151.832031 261.800781 151.617188 261.527344 L 137.605469 243.695312 C 137.214844 243.207031 137.308594 242.492188 137.796875 242.101562 C 138.289062 241.710938 139 241.792969 139.390625 242.292969 L 152.496094 258.976562 L 162.769531 245.507812 C 162.257812 236.15625 156.4375 206.847656 156.378906 206.550781 C 156.257812 205.933594 156.652344 205.335938 157.269531 205.210938 C 157.882812 205.089844 158.480469 205.488281 158.605469 206.101562 C 158.855469 207.347656 164.6875 236.761719 165.054688 245.8125 C 165.0625 246.078125 164.980469 246.335938 164.820312 246.542969 L 153.410156 261.507812 C 153.210938 261.792969 152.878906 261.949219 152.511719 261.957031 C 152.519531 261.957031 152.519531 261.957031 152.511719 261.957031 Z M 152.511719 261.957031 " fill-opacity="1" fill-rule="nonzero"/><g clip-path="url(#id2)"><path fill="#cacaca" d="M 198.992188 326.933594 C 198.632812 326.933594 198.285156 326.765625 198.070312 326.460938 L 152.53125 262.78125 L 144.917969 273.625 L 176.367188 324.203125 C 176.699219 324.734375 176.53125 325.4375 176 325.761719 C 175.46875 326.09375 174.765625 325.929688 174.441406 325.398438 L 142.59375 274.183594 C 142.355469 273.792969 142.371094 273.300781 142.628906 272.929688 L 151.589844 260.15625 C 151.808594 259.855469 152.148438 259.675781 152.511719 259.675781 C 152.511719 259.675781 152.511719 259.675781 152.519531 259.675781 C 152.886719 259.675781 153.234375 259.847656 153.441406 260.148438 L 199.910156 325.132812 C 200.277344 325.636719 200.160156 326.351562 199.644531 326.71875 C 199.445312 326.867188 199.222656 326.933594 198.992188 326.933594 Z M 198.992188 326.933594 " fill-opacity="1" fill-rule="nonzero"/></g><path fill="#cacaca" d="M 146.054688 295.949219 C 145.804688 295.949219 145.558594 295.867188 145.34375 295.699219 C 144.851562 295.308594 144.777344 294.585938 145.167969 294.105469 L 172.058594 260.746094 L 162.96875 246.46875 C 162.628906 245.9375 162.789062 245.242188 163.320312 244.898438 C 163.851562 244.558594 164.546875 244.71875 164.886719 245.25 L 174.414062 260.214844 C 174.679688 260.628906 174.648438 261.160156 174.339844 261.535156 L 146.933594 295.523438 C 146.710938 295.808594 146.386719 295.949219 146.054688 295.949219 Z M 146.054688 295.949219 " fill-opacity="1" fill-rule="nonzero"/><g clip-path="url(#id3)"><path fill="#cacaca" d="M 219.816406 326.933594 C 219.457031 326.933594 219.109375 326.765625 218.894531 326.460938 L 172.539062 261.476562 C 172.242188 261.054688 172.265625 260.480469 172.597656 260.082031 L 185.0625 245.441406 L 184.664062 206.324219 C 184.65625 205.703125 185.164062 205.1875 185.785156 205.179688 C 185.785156 205.179688 185.792969 205.179688 185.792969 205.179688 C 186.417969 205.179688 186.921875 205.675781 186.929688 206.300781 L 187.339844 245.839844 C 187.339844 246.113281 187.246094 246.378906 187.0625 246.585938 L 174.90625 260.878906 L 220.742188 325.140625 C 221.109375 325.65625 220.992188 326.359375 220.480469 326.726562 C 220.269531 326.867188 220.039062 326.933594 219.816406 326.933594 Z M 219.816406 326.933594 " fill-opacity="1" fill-rule="nonzero"/></g><path fill="#cacaca" d="M 145.691406 316.808594 C 145.417969 316.808594 145.132812 316.710938 144.917969 316.503906 C 144.460938 316.070312 144.4375 315.355469 144.867188 314.898438 L 195.546875 260.730469 L 185.28125 246.527344 C 184.914062 246.019531 185.023438 245.308594 185.535156 244.941406 C 186.042969 244.578125 186.757812 244.691406 187.121094 245.199219 L 197.9375 260.164062 C 198.253906 260.605469 198.21875 261.210938 197.84375 261.609375 L 146.527344 316.460938 C 146.296875 316.695312 145.988281 316.808594 145.691406 316.808594 Z M 145.691406 316.808594 " fill-opacity="1" fill-rule="nonzero"/><path fill="#cacaca" d="M 228.28125 309.101562 C 227.914062 309.101562 227.550781 308.921875 227.335938 308.597656 L 196.0625 261.453125 C 195.785156 261.042969 195.8125 260.503906 196.117188 260.121094 L 207.730469 245.398438 L 212.960938 206.929688 C 213.042969 206.308594 213.613281 205.875 214.238281 205.960938 C 214.859375 206.042969 215.292969 206.617188 215.207031 207.238281 L 209.9375 246.019531 C 209.914062 246.222656 209.828125 246.410156 209.707031 246.570312 L 198.417969 260.886719 L 229.234375 307.34375 C 229.582031 307.867188 229.441406 308.570312 228.917969 308.921875 C 228.71875 309.035156 228.496094 309.101562 228.28125 309.101562 Z M 228.28125 309.101562 " fill-opacity="1" fill-rule="nonzero"/><path fill="#cacaca" d="M 160.378906 325.945312 C 160.097656 325.945312 159.808594 325.835938 159.59375 325.628906 C 159.144531 325.1875 159.128906 324.476562 159.566406 324.019531 L 218.585938 262.945312 L 207.863281 246.476562 C 207.523438 245.953125 207.671875 245.25 208.195312 244.910156 C 208.71875 244.566406 209.421875 244.71875 209.765625 245.242188 L 220.984375 262.472656 C 221.273438 262.914062 221.21875 263.503906 220.851562 263.882812 L 161.203125 325.605469 C 160.96875 325.828125 160.679688 325.945312 160.378906 325.945312 Z M 160.378906 325.945312 " fill-opacity="1" fill-rule="nonzero"/><path fill="#cacaca" d="M 230.214844 278.144531 C 229.867188 278.144531 229.515625 277.984375 229.300781 277.679688 L 219.117188 263.761719 C 218.808594 263.335938 218.828125 262.753906 219.167969 262.347656 L 233.527344 245.5 C 233.933594 245.023438 234.644531 244.957031 235.128906 245.375 C 235.601562 245.78125 235.660156 246.496094 235.25 246.976562 L 221.472656 263.144531 L 231.125 276.339844 C 231.5 276.847656 231.382812 277.5625 230.878906 277.929688 C 230.679688 278.070312 230.445312 278.144531 230.214844 278.144531 Z M 230.214844 278.144531 " fill-opacity="1" fill-rule="nonzero"/><g clip-path="url(#id4)"><path fill="#cacaca" d="M 187.40625 326.933594 C 187.140625 326.933594 186.875 326.84375 186.65625 326.652344 C 186.183594 326.234375 186.144531 325.523438 186.550781 325.046875 L 229.359375 276.25 C 229.773438 275.777344 230.488281 275.734375 230.960938 276.140625 C 231.433594 276.558594 231.476562 277.273438 231.070312 277.746094 L 188.257812 326.542969 C 188.035156 326.808594 187.71875 326.933594 187.40625 326.933594 Z M 187.40625 326.933594 " fill-opacity="1" fill-rule="nonzero"/></g><g clip-path="url(#id5)"><path fill="#cacaca" d="M 209.753906 326.933594 C 209.507812 326.933594 209.257812 326.851562 209.042969 326.683594 C 208.550781 326.292969 208.476562 325.578125 208.867188 325.089844 L 227.457031 301.910156 C 227.847656 301.421875 228.5625 301.347656 229.050781 301.738281 C 229.542969 302.128906 229.617188 302.839844 229.226562 303.332031 L 210.636719 326.511719 C 210.417969 326.792969 210.085938 326.933594 209.753906 326.933594 Z M 209.753906 326.933594 " fill-opacity="1" fill-rule="nonzero"/></g><g clip-path="url(#id6)"><path fill="#e7343a" d="M 251.277344 208.167969 L 123.53125 208.167969 C 120.535156 208.167969 118.078125 205.71875 118.078125 202.710938 L 118.078125 202.289062 C 118.078125 199.292969 120.527344 196.832031 123.53125 196.832031 L 251.277344 196.832031 C 254.273438 196.832031 256.730469 199.28125 256.730469 202.289062 L 256.730469 202.710938 C 256.730469 205.710938 254.273438 208.167969 251.277344 208.167969 Z M 251.277344 208.167969 " fill-opacity="1" fill-rule="nonzero"/></g><g fill="#000000" fill-opacity="1"><g transform="translate(23.006663, 226.500517)"><g><path d="M 90.4375 -42.609375 L 69.921875 -39.234375 L 74.359375 -12.25 L 63.796875 -10.515625 L 59.359375 -37.5 L 1.421875 -27.953125 L 0.15625 -35.578125 L 43.359375 -112.5625 L 55.09375 -114.5 L 13.515625 -39.59375 L 58.109375 -46.9375 L 54.1875 -70.6875 L 64.453125 -72.375 L 68.375 -48.625 L 88.890625 -52 Z M 90.4375 -42.609375 "/></g></g></g><g fill="#000000" fill-opacity="1"><g transform="translate(248.49323, 186.174024)"><g><path d="M 99.796875 -5.921875 L 79.484375 -10.421875 L 73.578125 16.28125 L 63.125 13.96875 L 69.03125 -12.734375 L 11.703125 -25.421875 L 13.375 -32.96875 L 82.125 -88.375 L 93.734375 -85.8125 L 27.265625 -31.71875 L 71.390625 -21.953125 L 76.59375 -45.46875 L 86.75 -43.21875 L 81.546875 -19.703125 L 101.859375 -15.203125 Z M 99.796875 -5.921875 "/></g></g></g></svg>