<svg xmlns="http://www.w3.org/2000/svg" xmlns:xlink="http://www.w3.org/1999/xlink" width="500" 
zoomAndPan="magnify" viewBox="0 0 375 374.999991" height="500" preserveAspectRatio="xMidYMid meet" 
version="1.0">
<defs>
<clipPath id="id1">
<path d="M 112.5 112.5 L 262.5 112.5 L 262.5 262.5 L 112.5 262.5 Z M 112.5 112.5 " 
clip-rule="nonzero"/>
</clipPath>

<clipPath id="id2">
<path d="M 262.492188 187.5 C 262.492188 228.917969 228.917969 262.492188 187.5 262.492188 C 146.082031 262.492188 112.507812 228.917969 112.507812 187.5 C 112.507812 146.082031 146.082031 112.507812 187.5 112.507812 C 228.917969 112.507812 262.492188 146.082031 262.492188 187.5 Z M 262.492188 187.5 " 
clip-rule="nonzero"/>
</clipPath>

<clipPath id="id3">
<path d="M 191 112.5 L 225.859375 112.5 L 225.859375 262.5 L 191 262.5 Z M 191 112.5 " 
clip-rule="nonzero"/>
</clipPath>

<clipPath id="id4">
<path d="M 262.492188 187.5 C 262.492188 228.917969 228.917969 262.492188 187.5 262.492188 C 146.082031 262.492188 112.507812 228.917969 112.507812 187.5 C 112.507812 146.082031 146.082031 112.507812 187.5 112.507812 C 228.917969 112.507812 262.492188 146.082031 262.492188 187.5 Z M 262.492188 187.5 " 
clip-rule="nonzero"/>
</clipPath>

<clipPath id="id5">
<path d="M 112.5 156.457031 L 262.5 156.457031 L 262.5 190 L 112.5 190 Z M 112.5 156.457031 " 
clip-rule="nonzero"/>
</clipPath>

<clipPath id="id6">
<path d="M 262.492188 187.5 C 262.492188 228.917969 228.917969 262.492188 187.5 262.492188 C 146.082031 262.492188 112.507812 228.917969 112.507812 187.5 C 112.507812 146.082031 146.082031 112.507812 187.5 112.507812 C 228.917969 112.507812 262.492188 146.082031 262.492188 187.5 Z M 262.492188 187.5 " 
clip-rule="nonzero"/>
</clipPath>

<clipPath id="id7">
<path d="M 234.066406 116.15625 L 262.5 116.15625 L 262.5 219.886719 L 234.066406 219.886719 Z M 234.066406 116.15625 " 
clip-rule="nonzero"/>
</clipPath>

<clipPath id="id8">
<path d="M 262.492188 187.5 C 262.492188 228.917969 228.917969 262.492188 187.5 262.492188 C 146.082031 262.492188 112.507812 228.917969 112.507812 187.5 C 112.507812 146.082031 146.082031 112.507812 187.5 112.507812 C 228.917969 112.507812 262.492188 146.082031 262.492188 187.5 Z M 262.492188 187.5 " 
clip-rule="nonzero"/>
</clipPath>

<clipPath id="id9">
<path d="M 114.664062 114 L 201 114 L 201 260.933594 L 114.664062 260.933594 Z M 114.664062 114 " 
clip-rule="nonzero"/>
</clipPath>

<clipPath id="id10">
<path d="M 262.492188 187.5 C 262.492188 228.917969 228.917969 262.492188 187.5 262.492188 C 146.082031 262.492188 112.507812 228.917969 112.507812 187.5 C 112.507812 146.082031 146.082031 112.507812 187.5 112.507812 C 228.917969 112.507812 262.492188 146.082031 262.492188 187.5 Z M 262.492188 187.5 " 
clip-rule="nonzero"/>
</clipPath>

</defs>

<g clip-path="url(#id1)">
<g clip-path="url(#id2)">
<path fill="#ef7116" 
d="M 262.492188 187.5 C 262.492188 228.917969 228.917969 262.492188 187.5 262.492188 C 146.082031 262.492188 112.507812 228.917969 112.507812 187.5 C 112.507812 146.082031 146.082031 112.507812 187.5 112.507812 C 228.917969 112.507812 262.492188 146.082031 262.492188 187.5 " 
fill-opacity="1" 
fill-rule="nonzero"/>
</g>
</g>

<g clip-path="url(#id3)">
<g clip-path="url(#id4)"><path fill="#000000" d="M 198.539062 283.3125 L 194.703125 281.492188 C 226.820312 213.640625 224.007812 168.207031 216 142.050781 C 207.394531 113.96875 191.269531 101.683594 191.105469 101.558594 L 193.648438 98.160156 C 194.351562 98.6875 211.050781 111.410156 220.050781 140.804688 C 225.304688 157.960938 226.8125 177.269531 224.539062 198.195312 C 221.695312 224.222656 212.949219 252.867188 198.539062 283.3125 " fill-opacity="1" fill-rule="nonzero"/></g></g><g clip-path="url(#id5)"><g clip-path="url(#id6)"><path fill="#000000" d="M 99.011719 189.386719 L 97.066406 185.613281 C 119.1875 174.207031 142.082031 166.058594 165.113281 161.402344 C 183.550781 157.679688 202.121094 156.164062 220.292969 156.910156 C 251.304688 158.1875 270.195312 165.5 270.976562 165.8125 L 269.425781 169.761719 C 269.179688 169.664062 250.222656 162.359375 219.917969 161.148438 C 191.925781 160.023438 148.214844 164.007812 99.015625 189.386719 " fill-opacity="1" fill-rule="nonzero"/></g></g><g clip-path="url(#id7)"><g clip-path="url(#id8)"><path fill="#000000" d="M 260.695312 219.851562 C 247.261719 198.351562 240.878906 171.351562 237.894531 152.492188 C 234.664062 132.105469 234.589844 116.53125 234.589844 116.375 L 238.835938 116.367188 C 238.835938 116.96875 239.285156 177.566406 264.292969 217.605469 L 260.695312 219.851562 " fill-opacity="1" fill-rule="nonzero"/></g></g><g clip-path="url(#id9)"><g clip-path="url(#id10)"><path fill="#000000" d="M 127.65625 260.484375 L 125.03125 257.148438 C 154.253906 234.125 174.792969 213.34375 186.058594 195.378906 C 195.492188 180.34375 198.515625 167.171875 195.039062 156.222656 C 184.335938 122.507812 115.605469 118.53125 114.910156 118.484375 L 115.125 114.253906 C 115.867188 114.292969 133.277344 115.253906 152.386719 120.621094 C 163.679688 123.792969 173.1875 127.851562 180.640625 132.695312 C 190.15625 138.875 196.359375 146.359375 199.082031 154.933594 C 207.386719 181.097656 183.359375 216.613281 127.65625 260.484375 " 
fill-opacity="1" 
fill-rule="nonzero"/>
</g>
</g>
</svg>